<svg xmlns="http://www.w3.org/2000/svg" xmlns:xlink="http://www.w3.org/1999/xlink" width="389" height="96" viewBox="0 0 389 96" role="img" aria-label="Treinux">
  <defs><g id="wm"><g transform="translate(0,0)"><rect x="0" y="16" width="30" height="13"></rect><rect x="8.5" y="16" width="13" height="56"></rect></g><g transform="translate(40,0)"><rect x="0" y="16" width="13" height="56"></rect><rect x="0" y="16" width="30" height="13"></rect><rect x="17" y="16" width="13" height="32"></rect><rect x="0" y="35" width="30" height="13"></rect><polygon points="15,48 28,48 30,72 17,72"></polygon></g><g transform="translate(80,0)"><rect x="0" y="16" width="13" height="56"></rect><rect x="0" y="16" width="28" height="13"></rect><rect x="0" y="35" width="25" height="12"></rect><rect x="0" y="59" width="28" height="13"></rect></g><g transform="translate(118,0)"><rect x="0" y="16" width="13" height="56"></rect></g><g transform="translate(141,0)"><rect x="0" y="16" width="13" height="56"></rect><rect x="19" y="16" width="13" height="56"></rect><polygon points="0,16 13,16 32,72 19,72"></polygon></g><g transform="translate(183,0)"><rect x="0" y="16" width="13" height="48"></rect><rect x="19" y="16" width="13" height="48"></rect><rect x="0" y="59" width="32" height="13"></rect></g><g transform="translate(225,0)"><polygon points="0,16 13,16 32,72 19,72"></polygon><polygon points="19,16 32,16 13,72 0,72"></polygon></g></g></defs>
  <g style="mix-blend-mode:multiply"><circle cx="50" cy="49" r="32" fill="none" stroke="#2b54c7" stroke-width="13"></circle></g>
  <g style="mix-blend-mode:multiply"><circle cx="46" cy="46" r="32" fill="none" stroke="#d14b24" stroke-width="13"></circle></g>
  <circle cx="48" cy="47.5" r="9" fill="none" stroke="#1c1b18" stroke-width="2.5"></circle>
  <g style="mix-blend-mode:multiply" opacity=".9"><use xlink:href="#wm" href="#wm" fill="#2b54c7" transform="translate(100.5,2)"></use></g>
  <g style="mix-blend-mode:multiply" opacity=".85"><use xlink:href="#wm" href="#wm" fill="#d14b24" transform="translate(96.5,-1.5)"></use></g>
  <use xlink:href="#wm" href="#wm" fill="#1c1b18" transform="translate(98,0)"></use>
  <rect x="361" y="58" width="14" height="14" fill="#d14b24"></rect>
</svg>